<svg width="9703" height="1024" viewBox="0 0 9703 1024" fill="none" xmlns="http://www.w3.org/2000/svg">
<g style="mix-blend-mode:multiply">
<path d="M286.035 154.223L231.57 249.369L123.572 248.842L70.0388 153.169L124.503 58.0231L232.501 58.5501L286.035 154.223Z" fill="#262A2D"/>
<path d="M286.035 154.223L231.57 249.369L123.572 248.842L70.0388 153.169L124.503 58.0231L232.501 58.5501L286.035 154.223Z" fill="url(#paint0_linear)"/>
<path d="M455.035 854.223L400.57 949.369L292.572 948.842L239.039 853.169L293.503 758.023L401.501 758.55L455.035 854.223Z" fill="#33373A"/>
<path d="M116.035 654.223L61.5701 749.369L-46.4278 748.842L-99.9612 653.169L-45.4967 558.023L62.5013 558.55L116.035 654.223Z" fill="#505559"/>
<path d="M116.035 654.223L61.5701 749.369L-46.4278 748.842L-99.9612 653.169L-45.4967 558.023L62.5013 558.55L116.035 654.223Z" fill="url(#paint1_linear)"/>
<path d="M117.035 854.223L62.5701 949.369L-45.4278 948.842L-98.9612 853.169L-44.4967 758.023L63.5013 758.55L117.035 854.223Z" fill="#33373A"/>
<path d="M286.035 754.223L231.57 849.369L123.572 848.842L70.0388 753.169L124.503 658.023L232.501 658.55L286.035 754.223Z" fill="#262A2D"/>
<path d="M286.035 754.223L231.57 849.369L123.572 848.842L70.0388 753.169L124.503 658.023L232.501 658.55L286.035 754.223Z" fill="url(#paint2_linear)"/>
<path d="M285.035 954.223L230.57 1049.37L122.572 1048.84L69.0388 953.169L123.503 858.023L231.501 858.55L285.035 954.223Z" fill="#33373A"/>
<path d="M118.035 254.223L63.5701 349.369L-44.4278 348.842L-97.9612 253.169L-43.4967 158.023L64.5013 158.55L118.035 254.223Z" fill="#33373A"/>
<path d="M287.035 354.223L232.57 449.369L124.572 448.842L71.0388 353.169L125.503 258.023L233.501 258.55L287.035 354.223Z" fill="#33373A"/>
<path d="M456.035 254.223L401.57 349.369L293.572 348.842L240.039 253.169L294.503 158.023L402.501 158.55L456.035 254.223Z" fill="#33373A"/>
<path d="M455.035 454.223L400.57 549.369L292.572 548.842L239.039 453.169L293.503 358.023L401.501 358.55L455.035 454.223Z" fill="#262A2D"/>
<path d="M455.035 454.223L400.57 549.369L292.572 548.842L239.039 453.169L293.503 358.023L401.501 358.55L455.035 454.223Z" fill="url(#paint3_linear)"/>
<path d="M285.534 554.223L231.069 649.369L123.071 648.842L69.5378 553.169L124.002 458.023L232 458.55L285.534 554.223Z" fill="#505559"/>
<path d="M285.534 554.223L231.069 649.369L123.071 648.842L69.5378 553.169L124.002 458.023L232 458.55L285.534 554.223Z" fill="url(#paint4_linear)"/>
<path d="M118.035 454.223L63.5701 549.369L-44.4278 548.842L-97.9612 453.169L-43.4967 358.023L64.5013 358.55L118.035 454.223Z" fill="#33373A"/>
<path d="M623.035 554.223L568.57 649.369L460.572 648.842L407.039 553.169L461.503 458.023L569.501 458.55L623.035 554.223Z" fill="#505559"/>
<path d="M623.035 554.223L568.57 649.369L460.572 648.842L407.039 553.169L461.503 458.023L569.501 458.55L623.035 554.223Z" fill="url(#paint5_linear)"/>
<path d="M624.035 754.223L569.57 849.369L461.572 848.842L408.039 753.169L462.503 658.023L570.501 658.55L624.035 754.223Z" fill="#33373A"/>
<path d="M793.035 654.223L738.57 749.369L630.572 748.842L577.039 653.169L631.503 558.023L739.501 558.55L793.035 654.223Z" fill="#33373A"/>
<path d="M792.035 854.223L737.57 949.369L629.572 948.842L576.039 853.169L630.503 758.023L738.501 758.55L792.035 854.223Z" fill="#505559"/>
<path d="M792.035 854.223L737.57 949.369L629.572 948.842L576.039 853.169L630.503 758.023L738.501 758.55L792.035 854.223Z" fill="url(#paint6_linear)"/>
<path d="M622.534 954.223L568.069 1049.37L460.071 1048.84L406.538 953.169L461.002 858.023L569 858.55L622.534 954.223Z" fill="#262A2D"/>
<path d="M622.534 954.223L568.069 1049.37L460.071 1048.84L406.538 953.169L461.002 858.023L569 858.55L622.534 954.223Z" fill="url(#paint7_linear)"/>
<path d="M456.035 54.2232L401.57 149.369L293.572 148.842L240.039 53.1692L294.503 -41.9767L402.501 -41.4497L456.035 54.2232Z" fill="#33373A"/>
<path d="M117.035 55.2234L62.5701 150.369L-45.4278 149.842L-98.9612 54.1694L-44.4967 -40.9764L63.5013 -40.4494L117.035 55.2234Z" fill="#505559"/>
<path d="M117.035 55.2234L62.5701 150.369L-45.4278 149.842L-98.9612 54.1694L-44.4967 -40.9764L63.5013 -40.4494L117.035 55.2234Z" fill="url(#paint8_linear)"/>
<path d="M454.035 1054.22L399.57 1149.37L291.572 1148.84L238.039 1053.17L292.503 958.024L400.501 958.551L454.035 1054.22Z" fill="#33373A"/>
<path d="M1129.03 454.223L1074.57 549.369L966.572 548.842L913.039 453.169L967.503 358.023L1075.5 358.55L1129.03 454.223Z" fill="#262A2D"/>
<path d="M1129.03 454.223L1074.57 549.369L966.572 548.842L913.039 453.169L967.503 358.023L1075.5 358.55L1129.03 454.223Z" fill="url(#paint9_linear)"/>
<path d="M961.035 554.223L906.57 649.369L798.572 648.842L745.039 553.169L799.503 458.023L907.501 458.55L961.035 554.223Z" fill="#505559"/>
<path d="M961.035 554.223L906.57 649.369L798.572 648.842L745.039 553.169L799.503 458.023L907.501 458.55L961.035 554.223Z" fill="url(#paint10_linear)"/>
<path d="M1299.03 554.223L1244.57 649.369L1136.57 648.842L1083.04 553.169L1137.5 458.023L1245.5 458.55L1299.03 554.223Z" fill="#33373A"/>
<path d="M1298.03 754.223L1243.57 849.369L1135.57 848.842L1082.04 753.169L1136.5 658.023L1244.5 658.55L1298.03 754.223Z" fill="#33373A"/>
<path d="M1300.53 954.223L1246.07 1049.37L1138.07 1048.84L1084.54 953.169L1139 858.024L1247 858.551L1300.53 954.223Z" fill="#33373A"/>
<path d="M960.534 954.223L906.069 1049.37L798.071 1048.84L744.538 953.169L799.002 858.024L907 858.551L960.534 954.223Z" fill="#33373A"/>
<path d="M961.035 754.223L906.57 849.369L798.572 848.842L745.039 753.169L799.503 658.023L907.501 658.55L961.035 754.223Z" fill="#262A2D"/>
<path d="M961.035 754.223L906.57 849.369L798.572 848.842L745.039 753.169L799.503 658.023L907.501 658.55L961.035 754.223Z" fill="url(#paint11_linear)"/>
<path d="M1133.53 54.2232L1079.07 149.369L971.071 148.842L917.538 53.1692L972.002 -41.9767L1080 -41.4497L1133.53 54.2232Z" fill="#33373A"/>
<path d="M1300.53 154.223L1246.07 249.369L1138.07 248.842L1084.54 153.169L1139 58.0236L1247 58.5506L1300.53 154.223Z" fill="#505559"/>
<path d="M1300.53 154.223L1246.07 249.369L1138.07 248.842L1084.54 153.169L1139 58.0236L1247 58.5506L1300.53 154.223Z" fill="url(#paint12_linear)"/>
<path d="M1131.53 254.223L1077.07 349.369L969.071 348.842L915.538 253.169L970.002 158.024L1078 158.551L1131.53 254.223Z" fill="#33373A"/>
<path d="M1131.53 854.223L1077.07 949.369L969.071 948.842L915.538 853.169L970.002 758.024L1078 758.551L1131.53 854.223Z" fill="#33373A"/>
<path d="M964.534 -45.7767L910.069 49.3691L802.071 48.8421L748.538 -46.8307L803.002 -141.977L911 -141.45L964.534 -45.7767Z" fill="#33373A"/>
<path d="M793.035 254.223L738.57 349.369L630.572 348.842L577.039 253.169L631.503 158.023L739.501 158.55L793.035 254.223Z" fill="#33373A"/>
<path d="M962.035 154.223L907.57 249.369L799.572 248.842L746.039 153.169L800.503 58.0233L908.501 58.5503L962.035 154.223Z" fill="#33373A"/>
<path d="M961.035 354.223L906.57 449.369L798.572 448.842L745.039 353.169L799.503 258.023L907.501 258.55L961.035 354.223Z" fill="#33373A"/>
<path d="M791.534 454.223L737.069 549.369L629.071 548.842L575.538 453.169L630.002 358.023L738 358.55L791.534 454.223Z" fill="#33373A"/>
<path d="M624.035 354.223L569.57 449.369L461.572 448.842L408.039 353.169L462.503 258.023L570.501 258.55L624.035 354.223Z" fill="#33373A"/>
<path d="M792.035 54.2232L737.57 149.369L629.572 148.842L576.039 53.1692L630.503 -41.9767L738.501 -41.4497L792.035 54.2232Z" fill="#33373A"/>
<path d="M624.035 154.223L569.57 249.369L461.572 248.842L408.039 153.169L462.503 58.0233L570.501 58.5503L624.035 154.223Z" fill="#33373A"/>
<path d="M793.035 254.223L738.57 349.369L630.572 348.842L577.039 253.169L631.503 158.023L739.501 158.55L793.035 254.223Z" fill="#262A2D"/>
<path d="M793.035 254.223L738.57 349.369L630.572 348.842L577.039 253.169L631.503 158.023L739.501 158.55L793.035 254.223Z" fill="url(#paint13_linear)"/>
<path d="M962.035 154.223L907.57 249.369L799.572 248.842L746.039 153.169L800.503 58.0233L908.501 58.5503L962.035 154.223Z" fill="#505559"/>
<path d="M962.035 154.223L907.57 249.369L799.572 248.842L746.039 153.169L800.503 58.0233L908.501 58.5503L962.035 154.223Z" fill="url(#paint14_linear)"/>
<path d="M284.534 -45.7767L230.069 49.3691L122.071 48.8421L68.5378 -46.8307L123.002 -141.977L231 -141.45L284.534 -45.7767Z" fill="#33373A"/>
<path d="M622.534 -45.7767L568.069 49.3691L460.071 48.8421L406.538 -46.8307L461.002 -141.977L569 -141.45L622.534 -45.7767Z" fill="#505559"/>
<path d="M622.534 -45.7767L568.069 49.3691L460.071 48.8421L406.538 -46.8307L461.002 -141.977L569 -141.45L622.534 -45.7767Z" fill="url(#paint15_linear)"/>
<path d="M1301.53 354.223L1247.07 449.369L1139.07 448.842L1085.54 353.169L1140 258.023L1248 258.55L1301.53 354.223Z" fill="white"/>
<path d="M791.534 454.223L737.069 549.369L629.071 548.842L575.538 453.169L630.002 358.023L738 358.55L791.534 454.223Z" fill="#33373A"/>
<path d="M1133.53 1054.22L1079.07 1149.37L971.071 1148.84L917.538 1053.17L972.002 958.024L1080 958.551L1133.53 1054.22Z" fill="#262A2D"/>
<path d="M1133.53 1054.22L1079.07 1149.37L971.071 1148.84L917.538 1053.17L972.002 958.024L1080 958.551L1133.53 1054.22Z" fill="url(#paint16_linear)"/>
<path d="M790.534 1054.22L736.069 1149.37L628.071 1148.84L574.538 1053.17L629.002 958.024L737 958.551L790.534 1054.22Z" fill="#33373A"/>
<path d="M1301.53 -45.7767L1247.07 49.3691L1139.07 48.8421L1085.54 -46.8307L1140 -141.977L1248 -141.45L1301.53 -45.7767Z" fill="#33373A"/>
<path d="M1639.03 154.223L1584.57 249.369L1476.57 248.842L1423.04 153.169L1477.5 58.0231L1585.5 58.5501L1639.03 154.223Z" fill="#33373A"/>
<path d="M1471.03 254.223L1416.57 349.369L1308.57 348.842L1255.04 253.169L1309.5 158.023L1417.5 158.55L1471.03 254.223Z" fill="#33373A"/>
<path d="M1640.03 354.223L1585.57 449.369L1477.57 448.842L1424.04 353.169L1478.5 258.023L1586.5 258.55L1640.03 354.223Z" fill="#33373A"/>
<path d="M1809.03 254.223L1754.57 349.369L1646.57 348.842L1593.04 253.169L1647.5 158.023L1755.5 158.55L1809.03 254.223Z" fill="#33373A"/>
<path d="M1808.03 454.223L1753.57 549.369L1645.57 548.842L1592.04 453.169L1646.5 358.023L1754.5 358.55L1808.03 454.223Z" fill="#33373A"/>
<path d="M1638.53 554.223L1584.07 649.369L1476.07 648.842L1422.54 553.169L1477 458.023L1585 458.55L1638.53 554.223Z" fill="#33373A"/>
<path d="M1471.03 454.223L1416.57 549.369L1308.57 548.842L1255.04 453.169L1309.5 358.023L1417.5 358.55L1471.03 454.223Z" fill="#33373A"/>
<path d="M1808.03 654.223L1753.57 749.369L1645.57 748.842L1592.04 653.169L1646.5 558.023L1754.5 558.55L1808.03 654.223Z" fill="#33373A"/>
<path d="M1977.03 754.223L1922.57 849.369L1814.57 848.842L1761.04 753.169L1815.5 658.023L1923.5 658.55L1977.03 754.223Z" fill="#33373A"/>
<path d="M2145.03 854.223L2090.57 949.369L1982.57 948.842L1929.04 853.169L1983.5 758.023L2091.5 758.55L2145.03 854.223Z" fill="#33373A"/>
<path d="M1975.53 954.223L1921.07 1049.37L1813.07 1048.84L1759.54 953.169L1814 858.023L1922 858.55L1975.53 954.223Z" fill="#33373A"/>
<path d="M1808.03 854.223L1753.57 949.369L1645.57 948.842L1592.04 853.169L1646.5 758.023L1754.5 758.55L1808.03 854.223Z" fill="#33373A"/>
<path d="M1469.03 654.223L1414.57 749.369L1306.57 748.842L1253.04 653.169L1307.5 558.023L1415.5 558.55L1469.03 654.223Z" fill="#505559"/>
<path d="M1469.03 654.223L1414.57 749.369L1306.57 748.842L1253.04 653.169L1307.5 558.023L1415.5 558.55L1469.03 654.223Z" fill="url(#paint17_linear)"/>
<path d="M1470.03 854.223L1415.57 949.369L1307.57 948.842L1254.04 853.169L1308.5 758.023L1416.5 758.55L1470.03 854.223Z" fill="#33373A"/>
<path d="M1639.03 754.223L1584.57 849.369L1476.57 848.842L1423.04 753.169L1477.5 658.023L1585.5 658.55L1639.03 754.223Z" fill="#262A2D"/>
<path d="M1639.03 754.223L1584.57 849.369L1476.57 848.842L1423.04 753.169L1477.5 658.023L1585.5 658.55L1639.03 754.223Z" fill="url(#paint18_linear)"/>
<path d="M1638.03 954.223L1583.57 1049.37L1475.57 1048.84L1422.04 953.169L1476.5 858.023L1584.5 858.55L1638.03 954.223Z" fill="#505559"/>
<path d="M1638.03 954.223L1583.57 1049.37L1475.57 1048.84L1422.04 953.169L1476.5 858.023L1584.5 858.55L1638.03 954.223Z" fill="url(#paint19_linear)"/>
<path d="M1468.53 1054.22L1414.07 1149.37L1306.07 1148.84L1252.54 1053.17L1307 958.023L1415 958.55L1468.53 1054.22Z" fill="#33373A"/>
<path d="M1471.03 254.223L1416.57 349.369L1308.57 348.842L1255.04 253.169L1309.5 158.023L1417.5 158.55L1471.03 254.223Z" fill="#33373A"/>
<path d="M1640.03 354.223L1585.57 449.369L1477.57 448.842L1424.04 353.169L1478.5 258.023L1586.5 258.55L1640.03 354.223Z" fill="#505559"/>
<path d="M1640.03 354.223L1585.57 449.369L1477.57 448.842L1424.04 353.169L1478.5 258.023L1586.5 258.55L1640.03 354.223Z" fill="url(#paint20_linear)"/>
<path d="M1809.03 254.223L1754.57 349.369L1646.57 348.842L1593.04 253.169L1647.5 158.023L1755.5 158.55L1809.03 254.223Z" fill="#262A2D"/>
<path d="M1809.03 254.223L1754.57 349.369L1646.57 348.842L1593.04 253.169L1647.5 158.023L1755.5 158.55L1809.03 254.223Z" fill="url(#paint21_linear)"/>
<path d="M1638.53 554.223L1584.07 649.369L1476.07 648.842L1422.54 553.169L1477 458.023L1585 458.55L1638.53 554.223Z" fill="#33373A"/>
<path d="M1471.03 454.223L1416.57 549.369L1308.57 548.842L1255.04 453.169L1309.5 358.023L1417.5 358.55L1471.03 454.223Z" fill="#33373A"/>
<path d="M1808.03 654.223L1753.57 749.369L1645.57 748.842L1592.04 653.169L1646.5 558.023L1754.5 558.55L1808.03 654.223Z" fill="#33373A"/>
<path d="M1977.03 754.223L1922.57 849.369L1814.57 848.842L1761.04 753.169L1815.5 658.023L1923.5 658.55L1977.03 754.223Z" fill="#33373A"/>
<path d="M2146.03 654.223L2091.57 749.369L1983.57 748.842L1930.04 653.169L1984.5 558.023L2092.5 558.55L2146.03 654.223Z" fill="#262A2D"/>
<path d="M2146.03 654.223L2091.57 749.369L1983.57 748.842L1930.04 653.169L1984.5 558.023L2092.5 558.55L2146.03 654.223Z" fill="url(#paint22_linear)"/>
<path d="M2145.03 854.223L2090.57 949.369L1982.57 948.842L1929.04 853.169L1983.5 758.023L2091.5 758.55L2145.03 854.223Z" fill="#33373A"/>
<path d="M1975.53 954.223L1921.07 1049.37L1813.07 1048.84L1759.54 953.169L1814 858.023L1922 858.55L1975.53 954.223Z" fill="#33373A"/>
<path d="M1808.03 854.223L1753.57 949.369L1645.57 948.842L1592.04 853.169L1646.5 758.023L1754.5 758.55L1808.03 854.223Z" fill="#33373A"/>
<path d="M1809.03 54.2232L1754.57 149.369L1646.57 148.842L1593.04 53.1692L1647.5 -41.9767L1755.5 -41.4497L1809.03 54.2232Z" fill="#505559"/>
<path d="M1809.03 54.2232L1754.57 149.369L1646.57 148.842L1593.04 53.1692L1647.5 -41.9767L1755.5 -41.4497L1809.03 54.2232Z" fill="url(#paint23_linear)"/>
<path d="M1470.03 55.2234L1415.57 150.369L1307.57 149.842L1254.04 54.1694L1308.5 -40.9764L1416.5 -40.4494L1470.03 55.2234Z" fill="#33373A"/>
<path d="M1807.03 1054.22L1752.57 1149.37L1644.57 1148.84L1591.04 1053.17L1645.5 958.024L1753.5 958.551L1807.03 1054.22Z" fill="#33373A"/>
<path d="M2482.03 454.223L2427.57 549.369L2319.57 548.842L2266.04 453.169L2320.5 358.023L2428.5 358.55L2482.03 454.223Z" fill="#505559"/>
<path d="M2482.03 454.223L2427.57 549.369L2319.57 548.842L2266.04 453.169L2320.5 358.023L2428.5 358.55L2482.03 454.223Z" fill="url(#paint24_linear)"/>
<path d="M2314.03 554.223L2259.57 649.369L2151.57 648.842L2098.04 553.169L2152.5 458.023L2260.5 458.55L2314.03 554.223Z" fill="#505559"/>
<path d="M2314.03 554.223L2259.57 649.369L2151.57 648.842L2098.04 553.169L2152.5 458.023L2260.5 458.55L2314.03 554.223Z" fill="url(#paint25_linear)"/>
<path d="M2483.03 654.223L2428.57 749.369L2320.57 748.842L2267.04 653.169L2321.5 558.023L2429.5 558.55L2483.03 654.223Z" fill="#262A2D"/>
<path d="M2483.03 654.223L2428.57 749.369L2320.57 748.842L2267.04 653.169L2321.5 558.023L2429.5 558.55L2483.03 654.223Z" fill="url(#paint26_linear)"/>
<path d="M2652.03 554.223L2597.57 649.369L2489.57 648.842L2436.04 553.169L2490.5 458.023L2598.5 458.55L2652.03 554.223Z" fill="#33373A"/>
<path d="M2651.03 754.223L2596.57 849.369L2488.57 848.842L2435.04 753.169L2489.5 658.023L2597.5 658.55L2651.03 754.223Z" fill="#33373A"/>
<path d="M2653.53 954.223L2599.07 1049.37L2491.07 1048.84L2437.54 953.169L2492 858.024L2600 858.551L2653.53 954.223Z" fill="#505559"/>
<path d="M2653.53 954.223L2599.07 1049.37L2491.07 1048.84L2437.54 953.169L2492 858.024L2600 858.551L2653.53 954.223Z" fill="url(#paint27_linear)"/>
<path d="M2313.53 954.223L2259.07 1049.37L2151.07 1048.84L2097.54 953.169L2152 858.024L2260 858.551L2313.53 954.223Z" fill="#505559"/>
<path d="M2313.53 954.223L2259.07 1049.37L2151.07 1048.84L2097.54 953.169L2152 858.024L2260 858.551L2313.53 954.223Z" fill="url(#paint28_linear)"/>
<path d="M2314.03 754.223L2259.57 849.369L2151.57 848.842L2098.04 753.169L2152.5 658.023L2260.5 658.55L2314.03 754.223Z" fill="#33373A"/>
<path d="M2486.53 54.2232L2432.07 149.369L2324.07 148.842L2270.54 53.1692L2325 -41.9767L2433 -41.4497L2486.53 54.2232Z" fill="#33373A"/>
<path d="M2653.53 154.223L2599.07 249.369L2491.07 248.842L2437.54 153.169L2492 58.0236L2600 58.5506L2653.53 154.223Z" fill="#33373A"/>
<path d="M2484.53 254.223L2430.07 349.369L2322.07 348.842L2268.54 253.169L2323 158.024L2431 158.551L2484.53 254.223Z" fill="#33373A"/>
<path d="M2484.53 854.223L2430.07 949.369L2322.07 948.842L2268.54 853.169L2323 758.024L2431 758.551L2484.53 854.223Z" fill="#33373A"/>
<path d="M2317.53 -45.7767L2263.07 49.3691L2155.07 48.8421L2101.54 -46.8307L2156 -141.977L2264 -141.45L2317.53 -45.7767Z" fill="#33373A"/>
<path d="M2145.03 54.2232L2090.57 149.369L1982.57 148.842L1929.04 53.1692L1983.5 -41.9767L2091.5 -41.4497L2145.03 54.2232Z" fill="#33373A"/>
<path d="M1977.03 154.223L1922.57 249.369L1814.57 248.842L1761.04 153.169L1815.5 58.0233L1923.5 58.5503L1977.03 154.223Z" fill="#33373A"/>
<path d="M2146.03 254.223L2091.57 349.369L1983.57 348.842L1930.04 253.169L1984.5 158.023L2092.5 158.55L2146.03 254.223Z" fill="#33373A"/>
<path d="M2315.03 154.223L2260.57 249.369L2152.57 248.842L2099.04 153.169L2153.5 58.0233L2261.5 58.5503L2315.03 154.223Z" fill="#33373A"/>
<path d="M2314.03 354.223L2259.57 449.369L2151.57 448.842L2098.04 353.169L2152.5 258.023L2260.5 258.55L2314.03 354.223Z" fill="#33373A"/>
<path d="M2144.53 454.223L2090.07 549.369L1982.07 548.842L1928.54 453.169L1983 358.023L2091 358.55L2144.53 454.223Z" fill="#33373A"/>
<path d="M1977.03 354.223L1922.57 449.369L1814.57 448.842L1761.04 353.169L1815.5 258.023L1923.5 258.55L1977.03 354.223Z" fill="#33373A"/>
<path d="M2145.03 54.2232L2090.57 149.369L1982.57 148.842L1929.04 53.1692L1983.5 -41.9767L2091.5 -41.4497L2145.03 54.2232Z" fill="#33373A"/>
<path d="M1977.03 154.223L1922.57 249.369L1814.57 248.842L1761.04 153.169L1815.5 58.0233L1923.5 58.5503L1977.03 154.223Z" fill="#33373A"/>
<path d="M2146.03 254.223L2091.57 349.369L1983.57 348.842L1930.04 253.169L1984.5 158.023L2092.5 158.55L2146.03 254.223Z" fill="#262A2D"/>
<path d="M2146.03 254.223L2091.57 349.369L1983.57 348.842L1930.04 253.169L1984.5 158.023L2092.5 158.55L2146.03 254.223Z" fill="url(#paint29_linear)"/>
<path d="M2315.03 154.223L2260.57 249.369L2152.57 248.842L2099.04 153.169L2153.5 58.0233L2261.5 58.5503L2315.03 154.223Z" fill="#505559"/>
<path d="M2315.03 154.223L2260.57 249.369L2152.57 248.842L2099.04 153.169L2153.5 58.0233L2261.5 58.5503L2315.03 154.223Z" fill="url(#paint30_linear)"/>
<path d="M1637.53 -45.7767L1583.07 49.3691L1475.07 48.8421L1421.54 -46.8307L1476 -141.977L1584 -141.45L1637.53 -45.7767Z" fill="#33373A"/>
<path d="M1975.53 -45.7767L1921.07 49.3691L1813.07 48.8421L1759.54 -46.8307L1814 -141.977L1922 -141.45L1975.53 -45.7767Z" fill="#262A2D"/>
<path d="M1975.53 -45.7767L1921.07 49.3691L1813.07 48.8421L1759.54 -46.8307L1814 -141.977L1922 -141.45L1975.53 -45.7767Z" fill="url(#paint31_linear)"/>
<path d="M2654.53 354.223L2600.07 449.369L2492.07 448.842L2438.54 353.169L2493 258.023L2601 258.55L2654.53 354.223Z" fill="#33373A"/>
<path d="M2144.53 454.223L2090.07 549.369L1982.07 548.842L1928.54 453.169L1983 358.023L2091 358.55L2144.53 454.223Z" fill="#33373A"/>
<path d="M1977.03 354.223L1922.57 449.369L1814.57 448.842L1761.04 353.169L1815.5 258.023L1923.5 258.55L1977.03 354.223Z" fill="#505559"/>
<path d="M1977.03 354.223L1922.57 449.369L1814.57 448.842L1761.04 353.169L1815.5 258.023L1923.5 258.55L1977.03 354.223Z" fill="url(#paint32_linear)"/>
<path d="M2485.53 1054.22L2431.07 1149.37L2323.07 1148.84L2269.54 1053.17L2324 958.024L2432 958.551L2485.53 1054.22Z" fill="#33373A"/>
<path d="M2654.53 -45.7767L2600.07 49.3691L2492.07 48.8421L2438.54 -46.8307L2493 -141.977L2601 -141.45L2654.53 -45.7767Z" fill="#33373A"/>
<path d="M2823.03 254.223L2768.57 349.369L2660.57 348.842L2607.04 253.169L2661.5 158.023L2769.5 158.55L2823.03 254.223Z" fill="#33373A"/>
<path d="M2992.03 354.223L2937.57 449.369L2829.57 448.842L2776.04 353.169L2830.5 258.023L2938.5 258.55L2992.03 354.223Z" fill="#33373A"/>
<path d="M3161.03 254.223L3106.57 349.369L2998.57 348.842L2945.04 253.169L2999.5 158.023L3107.5 158.55L3161.03 254.223Z" fill="#33373A"/>
<path d="M3160.03 454.223L3105.57 549.369L2997.57 548.842L2944.04 453.169L2998.5 358.023L3106.5 358.55L3160.03 454.223Z" fill="#33373A"/>
<path d="M2990.53 554.223L2936.07 649.369L2828.07 648.842L2774.54 553.169L2829 458.023L2937 458.55L2990.53 554.223Z" fill="#33373A"/>
<path d="M3498.03 654.223L3443.57 749.369L3335.57 748.842L3282.04 653.169L3336.5 558.023L3444.5 558.55L3498.03 654.223Z" fill="#33373A"/>
<path d="M3160.03 854.223L3105.57 949.369L2997.57 948.842L2944.04 853.169L2998.5 758.023L3106.5 758.55L3160.03 854.223Z" fill="#33373A"/>
<path d="M2822.03 854.223L2767.57 949.369L2659.57 948.842L2606.04 853.169L2660.5 758.023L2768.5 758.55L2822.03 854.223Z" fill="#33373A"/>
<path d="M2991.03 754.223L2936.57 849.369L2828.57 848.842L2775.04 753.169L2829.5 658.023L2937.5 658.55L2991.03 754.223Z" fill="#505559"/>
<path d="M2991.03 754.223L2936.57 849.369L2828.57 848.842L2775.04 753.169L2829.5 658.023L2937.5 658.55L2991.03 754.223Z" fill="url(#paint33_linear)"/>
<path d="M2990.03 954.223L2935.57 1049.37L2827.57 1048.84L2774.04 953.169L2828.5 858.023L2936.5 858.55L2990.03 954.223Z" fill="#33373A"/>
<path d="M2820.53 1054.22L2766.07 1149.37L2658.07 1148.84L2604.54 1053.17L2659 958.023L2767 958.55L2820.53 1054.22Z" fill="#262A2D"/>
<path d="M2820.53 1054.22L2766.07 1149.37L2658.07 1148.84L2604.54 1053.17L2659 958.023L2767 958.55L2820.53 1054.22Z" fill="url(#paint34_linear)"/>
<path d="M2823.03 254.223L2768.57 349.369L2660.57 348.842L2607.04 253.169L2661.5 158.023L2769.5 158.55L2823.03 254.223Z" fill="#505559"/>
<path d="M2823.03 254.223L2768.57 349.369L2660.57 348.842L2607.04 253.169L2661.5 158.023L2769.5 158.55L2823.03 254.223Z" fill="url(#paint35_linear)"/>
<path d="M2990.53 554.223L2936.07 649.369L2828.07 648.842L2774.54 553.169L2829 458.023L2937 458.55L2990.53 554.223Z" fill="#262A2D"/>
<path d="M2990.53 554.223L2936.07 649.369L2828.07 648.842L2774.54 553.169L2829 458.023L2937 458.55L2990.53 554.223Z" fill="url(#paint36_linear)"/>
<path d="M2823.03 454.223L2768.57 549.369L2660.57 548.842L2607.04 453.169L2661.5 358.023L2769.5 358.55L2823.03 454.223Z" fill="#33373A"/>
<path d="M3328.03 554.223L3273.57 649.369L3165.57 648.842L3112.04 553.169L3166.5 458.023L3274.5 458.55L3328.03 554.223Z" fill="#505559"/>
<path d="M3328.03 554.223L3273.57 649.369L3165.57 648.842L3112.04 553.169L3166.5 458.023L3274.5 458.55L3328.03 554.223Z" fill="url(#paint37_linear)"/>
<path d="M3160.03 654.223L3105.57 749.369L2997.57 748.842L2944.04 653.169L2998.5 558.023L3106.5 558.55L3160.03 654.223Z" fill="#33373A"/>
<path d="M3329.03 754.223L3274.57 849.369L3166.57 848.842L3113.04 753.169L3167.5 658.023L3275.5 658.55L3329.03 754.223Z" fill="#262A2D"/>
<path d="M3329.03 754.223L3274.57 849.369L3166.57 848.842L3113.04 753.169L3167.5 658.023L3275.5 658.55L3329.03 754.223Z" fill="url(#paint38_linear)"/>
<path d="M3498.03 654.223L3443.57 749.369L3335.57 748.842L3282.04 653.169L3336.5 558.023L3444.5 558.55L3498.03 654.223Z" fill="#33373A"/>
<path d="M3497.03 854.223L3442.57 949.369L3334.57 948.842L3281.04 853.169L3335.5 758.023L3443.5 758.55L3497.03 854.223Z" fill="#505559"/>
<path d="M3497.03 854.223L3442.57 949.369L3334.57 948.842L3281.04 853.169L3335.5 758.023L3443.5 758.55L3497.03 854.223Z" fill="url(#paint39_linear)"/>
<path d="M3161.03 54.2232L3106.57 149.369L2998.57 148.842L2945.04 53.1692L2999.5 -41.9767L3107.5 -41.4497L3161.03 54.2232Z" fill="#505559"/>
<path d="M3161.03 54.2232L3106.57 149.369L2998.57 148.842L2945.04 53.1692L2999.5 -41.9767L3107.5 -41.4497L3161.03 54.2232Z" fill="url(#paint40_linear)"/>
<path d="M2822.03 55.2234L2767.57 150.369L2659.57 149.842L2606.04 54.1694L2660.5 -40.9764L2768.5 -40.4494L2822.03 55.2234Z" fill="#33373A"/>
<path d="M3159.03 1054.22L3104.57 1149.37L2996.57 1148.84L2943.04 1053.17L2997.5 958.024L3105.5 958.551L3159.03 1054.22Z" fill="#33373A"/>
<path d="M3834.03 454.223L3779.57 549.369L3671.57 548.842L3618.04 453.169L3672.5 358.023L3780.5 358.55L3834.03 454.223Z" fill="#33373A"/>
<path d="M3835.03 654.223L3780.57 749.369L3672.57 748.842L3619.04 653.169L3673.5 558.023L3781.5 558.55L3835.03 654.223Z" fill="#505559"/>
<path d="M3835.03 654.223L3780.57 749.369L3672.57 748.842L3619.04 653.169L3673.5 558.023L3781.5 558.55L3835.03 654.223Z" fill="url(#paint41_linear)"/>
<path d="M4004.03 554.223L3949.57 649.369L3841.57 648.842L3788.04 553.169L3842.5 458.023L3950.5 458.55L4004.03 554.223Z" fill="#33373A"/>
<path d="M4003.03 754.223L3948.57 849.369L3840.57 848.842L3787.04 753.169L3841.5 658.023L3949.5 658.55L4003.03 754.223Z" fill="#33373A"/>
<path d="M4005.53 954.223L3951.07 1049.37L3843.07 1048.84L3789.54 953.169L3844 858.024L3952 858.551L4005.53 954.223Z" fill="#33373A"/>
<path d="M3665.53 954.223L3611.07 1049.37L3503.07 1048.84L3449.54 953.169L3504 858.024L3612 858.551L3665.53 954.223Z" fill="#262A2D"/>
<path d="M3665.53 954.223L3611.07 1049.37L3503.07 1048.84L3449.54 953.169L3504 858.024L3612 858.551L3665.53 954.223Z" fill="url(#paint42_linear)"/>
<path d="M3666.03 754.223L3611.57 849.369L3503.57 848.842L3450.04 753.169L3504.5 658.023L3612.5 658.55L3666.03 754.223Z" fill="#33373A"/>
<path d="M3838.53 54.2232L3784.07 149.369L3676.07 148.842L3622.54 53.1692L3677 -41.9767L3785 -41.4497L3838.53 54.2232Z" fill="#33373A"/>
<path d="M4005.53 154.223L3951.07 249.369L3843.07 248.842L3789.54 153.169L3844 58.0236L3952 58.5506L4005.53 154.223Z" fill="#33373A"/>
<path d="M3836.53 254.223L3782.07 349.369L3674.07 348.842L3620.54 253.169L3675 158.024L3783 158.551L3836.53 254.223Z" fill="#262A2D"/>
<path d="M3836.53 254.223L3782.07 349.369L3674.07 348.842L3620.54 253.169L3675 158.024L3783 158.551L3836.53 254.223Z" fill="url(#paint43_linear)"/>
<path d="M3836.53 854.223L3782.07 949.369L3674.07 948.842L3620.54 853.169L3675 758.024L3783 758.551L3836.53 854.223Z" fill="#505559"/>
<path d="M3836.53 854.223L3782.07 949.369L3674.07 948.842L3620.54 853.169L3675 758.024L3783 758.551L3836.53 854.223Z" fill="url(#paint44_linear)"/>
<path d="M3669.53 -45.7767L3615.07 49.3691L3507.07 48.8421L3453.54 -46.8307L3508 -141.977L3616 -141.45L3669.53 -45.7767Z" fill="#262A2D"/>
<path d="M3669.53 -45.7767L3615.07 49.3691L3507.07 48.8421L3453.54 -46.8307L3508 -141.977L3616 -141.45L3669.53 -45.7767Z" fill="url(#paint45_linear)"/>
<path d="M3497.03 54.2232L3442.57 149.369L3334.57 148.842L3281.04 53.1692L3335.5 -41.9767L3443.5 -41.4497L3497.03 54.2232Z" fill="#33373A"/>
<path d="M3329.03 154.223L3274.57 249.369L3166.57 248.842L3113.04 153.169L3167.5 58.0233L3275.5 58.5503L3329.03 154.223Z" fill="#33373A"/>
<path d="M3498.03 254.223L3443.57 349.369L3335.57 348.842L3282.04 253.169L3336.5 158.023L3444.5 158.55L3498.03 254.223Z" fill="#33373A"/>
<path d="M3667.03 154.223L3612.57 249.369L3504.57 248.842L3451.04 153.169L3505.5 58.0233L3613.5 58.5503L3667.03 154.223Z" fill="#33373A"/>
<path d="M3666.03 354.223L3611.57 449.369L3503.57 448.842L3450.04 353.169L3504.5 258.023L3612.5 258.55L3666.03 354.223Z" fill="#33373A"/>
<path d="M3496.53 454.223L3442.07 549.369L3334.07 548.842L3280.54 453.169L3335 358.023L3443 358.55L3496.53 454.223Z" fill="#33373A"/>
<path d="M3329.03 354.223L3274.57 449.369L3166.57 448.842L3113.04 353.169L3167.5 258.023L3275.5 258.55L3329.03 354.223Z" fill="#33373A"/>
<path d="M3497.03 54.2232L3442.57 149.369L3334.57 148.842L3281.04 53.1692L3335.5 -41.9767L3443.5 -41.4497L3497.03 54.2232Z" fill="#33373A"/>
<path d="M3329.03 154.223L3274.57 249.369L3166.57 248.842L3113.04 153.169L3167.5 58.0233L3275.5 58.5503L3329.03 154.223Z" fill="#33373A"/>
<path d="M3498.03 254.223L3443.57 349.369L3335.57 348.842L3282.04 253.169L3336.5 158.023L3444.5 158.55L3498.03 254.223Z" fill="#505559"/>
<path d="M3498.03 254.223L3443.57 349.369L3335.57 348.842L3282.04 253.169L3336.5 158.023L3444.5 158.55L3498.03 254.223Z" fill="url(#paint46_linear)"/>
<path d="M3667.03 154.223L3612.57 249.369L3504.57 248.842L3451.04 153.169L3505.5 58.0233L3613.5 58.5503L3667.03 154.223Z" fill="#33373A"/>
<path d="M2989.53 -45.7767L2935.07 49.3691L2827.07 48.8421L2773.54 -46.8307L2828 -141.977L2936 -141.45L2989.53 -45.7767Z" fill="#33373A"/>
<path d="M3327.53 -45.7767L3273.07 49.3691L3165.07 48.8421L3111.54 -46.8307L3166 -141.977L3274 -141.45L3327.53 -45.7767Z" fill="#33373A"/>
<path d="M4006.53 354.223L3952.07 449.369L3844.07 448.842L3790.54 353.169L3845 258.023L3953 258.55L4006.53 354.223Z" fill="#33373A"/>
<path d="M3838.53 1054.22L3784.07 1149.37L3676.07 1148.84L3622.54 1053.17L3677 958.024L3785 958.551L3838.53 1054.22Z" fill="#33373A"/>
<path d="M3495.53 1054.22L3441.07 1149.37L3333.07 1148.84L3279.54 1053.17L3334 958.024L3442 958.551L3495.53 1054.22Z" fill="#505559"/>
<path d="M3495.53 1054.22L3441.07 1149.37L3333.07 1148.84L3279.54 1053.17L3334 958.024L3442 958.551L3495.53 1054.22Z" fill="url(#paint47_linear)"/>
<path d="M4006.53 -45.7767L3952.07 49.3691L3844.07 48.8421L3790.54 -46.8307L3845 -141.977L3953 -141.45L4006.53 -45.7767Z" fill="#33373A"/>
<path d="M4174.03 654.223L4119.57 749.369L4011.57 748.842L3958.04 653.169L4012.5 558.023L4120.5 558.55L4174.03 654.223Z" fill="#33373A"/>
<path d="M4175.03 854.223L4120.57 949.369L4012.57 948.842L3959.04 853.169L4013.5 758.023L4121.5 758.55L4175.03 854.223Z" fill="#33373A"/>
<path d="M4344.03 754.223L4289.57 849.369L4181.57 848.842L4128.04 753.169L4182.5 658.023L4290.5 658.55L4344.03 754.223Z" fill="#33373A"/>
<path d="M4343.03 954.223L4288.57 1049.37L4180.57 1048.84L4127.04 953.169L4181.5 858.023L4289.5 858.55L4343.03 954.223Z" fill="#33373A"/>
<path d="M4173.53 1054.22L4119.07 1149.37L4011.07 1148.84L3957.54 1053.17L4012 958.023L4120 958.55L4173.53 1054.22Z" fill="#33373A"/>
<path d="M4344.03 154.223L4289.57 249.369L4181.57 248.842L4128.04 153.169L4182.5 58.0231L4290.5 58.5501L4344.03 154.223Z" fill="#33373A"/>
<path d="M4176.03 254.223L4121.57 349.369L4013.57 348.842L3960.04 253.169L4014.5 158.023L4122.5 158.55L4176.03 254.223Z" fill="#33373A"/>
<path d="M4345.03 354.223L4290.57 449.369L4182.57 448.842L4129.04 353.169L4183.5 258.023L4291.5 258.55L4345.03 354.223Z" fill="#33373A"/>
<path d="M4514.03 254.223L4459.57 349.369L4351.57 348.842L4298.04 253.169L4352.5 158.023L4460.5 158.55L4514.03 254.223Z" fill="#33373A"/>
<path d="M4513.03 454.223L4458.57 549.369L4350.57 548.842L4297.04 453.169L4351.5 358.023L4459.5 358.55L4513.03 454.223Z" fill="#33373A"/>
<path d="M4343.53 554.223L4289.07 649.369L4181.07 648.842L4127.54 553.169L4182 458.023L4290 458.55L4343.53 554.223Z" fill="#33373A"/>
<path d="M4176.03 454.223L4121.57 549.369L4013.57 548.842L3960.04 453.169L4014.5 358.023L4122.5 358.55L4176.03 454.223Z" fill="#33373A"/>
<path d="M4681.03 554.223L4626.57 649.369L4518.57 648.842L4465.04 553.169L4519.5 458.023L4627.5 458.55L4681.03 554.223Z" fill="#33373A"/>
<path d="M4513.03 654.223L4458.57 749.369L4350.57 748.842L4297.04 653.169L4351.5 558.023L4459.5 558.55L4513.03 654.223Z" fill="#33373A"/>
<path d="M4682.03 754.223L4627.57 849.369L4519.57 848.842L4466.04 753.169L4520.5 658.023L4628.5 658.55L4682.03 754.223Z" fill="#33373A"/>
<path d="M4851.03 654.223L4796.57 749.369L4688.57 748.842L4635.04 653.169L4689.5 558.023L4797.5 558.55L4851.03 654.223Z" fill="#33373A"/>
<path d="M4850.03 854.223L4795.57 949.369L4687.57 948.842L4634.04 853.169L4688.5 758.023L4796.5 758.55L4850.03 854.223Z" fill="#33373A"/>
<path d="M4513.03 854.223L4458.57 949.369L4350.57 948.842L4297.04 853.169L4351.5 758.023L4459.5 758.55L4513.03 854.223Z" fill="#33373A"/>
<path d="M4175.03 55.2234L4120.57 150.369L4012.57 149.842L3959.04 54.1694L4013.5 -40.9764L4121.5 -40.4494L4175.03 55.2234Z" fill="#33373A"/>
<path d="M4512.03 1054.22L4457.57 1149.37L4349.57 1148.84L4296.04 1053.17L4350.5 958.024L4458.5 958.551L4512.03 1054.22Z" fill="#33373A"/>
<path d="M5187.03 454.223L5132.57 549.369L5024.57 548.842L4971.04 453.169L5025.5 358.023L5133.5 358.55L5187.03 454.223Z" fill="#33373A"/>
<path d="M5019.03 554.223L4964.57 649.369L4856.57 648.842L4803.04 553.169L4857.5 458.023L4965.5 458.55L5019.03 554.223Z" fill="#33373A"/>
<path d="M5188.03 654.223L5133.57 749.369L5025.57 748.842L4972.04 653.169L5026.5 558.023L5134.5 558.55L5188.03 654.223Z" fill="#33373A"/>
<path d="M5357.03 554.223L5302.57 649.369L5194.57 648.842L5141.04 553.169L5195.5 458.023L5303.5 458.55L5357.03 554.223Z" fill="#33373A"/>
<path d="M5356.03 754.223L5301.57 849.369L5193.57 848.842L5140.04 753.169L5194.5 658.023L5302.5 658.55L5356.03 754.223Z" fill="#33373A"/>
<path d="M5358.53 954.223L5304.07 1049.37L5196.07 1048.84L5142.54 953.169L5197 858.024L5305 858.551L5358.53 954.223Z" fill="#33373A"/>
<path d="M5018.53 954.223L4964.07 1049.37L4856.07 1048.84L4802.54 953.169L4857 858.024L4965 858.551L5018.53 954.223Z" fill="#33373A"/>
<path d="M5191.53 54.2232L5137.07 149.369L5029.07 148.842L4975.54 53.1692L5030 -41.9767L5138 -41.4497L5191.53 54.2232Z" fill="#33373A"/>
<path d="M5358.53 154.223L5304.07 249.369L5196.07 248.842L5142.54 153.169L5197 58.0236L5305 58.5506L5358.53 154.223Z" fill="#33373A"/>
<path d="M5189.53 254.223L5135.07 349.369L5027.07 348.842L4973.54 253.169L5028 158.024L5136 158.551L5189.53 254.223Z" fill="#33373A"/>
<path d="M5189.53 854.223L5135.07 949.369L5027.07 948.842L4973.54 853.169L5028 758.024L5136 758.551L5189.53 854.223Z" fill="#33373A"/>
<path d="M5022.53 -45.7767L4968.07 49.3691L4860.07 48.8421L4806.54 -46.8307L4861 -141.977L4969 -141.45L5022.53 -45.7767Z" fill="#33373A"/>
<path d="M4850.03 54.2232L4795.57 149.369L4687.57 148.842L4634.04 53.1692L4688.5 -41.9767L4796.5 -41.4497L4850.03 54.2232Z" fill="#33373A"/>
<path d="M4682.03 154.223L4627.57 249.369L4519.57 248.842L4466.04 153.169L4520.5 58.0233L4628.5 58.5503L4682.03 154.223Z" fill="#33373A"/>
<path d="M4851.03 254.223L4796.57 349.369L4688.57 348.842L4635.04 253.169L4689.5 158.023L4797.5 158.55L4851.03 254.223Z" fill="#33373A"/>
<path d="M5020.03 154.223L4965.57 249.369L4857.57 248.842L4804.04 153.169L4858.5 58.0233L4966.5 58.5503L5020.03 154.223Z" fill="#33373A"/>
<path d="M5019.03 354.223L4964.57 449.369L4856.57 448.842L4803.04 353.169L4857.5 258.023L4965.5 258.55L5019.03 354.223Z" fill="#33373A"/>
<path d="M4342.53 -45.7767L4288.07 49.3691L4180.07 48.8421L4126.54 -46.8307L4181 -141.977L4289 -141.45L4342.53 -45.7767Z" fill="#33373A"/>
<path d="M4680.53 -45.7767L4626.07 49.3691L4518.07 48.8421L4464.54 -46.8307L4519 -141.977L4627 -141.45L4680.53 -45.7767Z" fill="#33373A"/>
<path d="M5359.53 354.223L5305.07 449.369L5197.07 448.842L5143.54 353.169L5198 258.023L5306 258.55L5359.53 354.223Z" fill="#33373A"/>
<path d="M4849.53 454.223L4795.07 549.369L4687.07 548.842L4633.54 453.169L4688 358.023L4796 358.55L4849.53 454.223Z" fill="#33373A"/>
<path d="M4682.03 354.223L4627.57 449.369L4519.57 448.842L4466.04 353.169L4520.5 258.023L4628.5 258.55L4682.03 354.223Z" fill="#33373A"/>
<path d="M5190.53 1054.22L5136.07 1149.37L5028.07 1148.84L4974.54 1053.17L5029 958.024L5137 958.551L5190.53 1054.22Z" fill="#33373A"/>
<path d="M4848.53 1054.22L4794.07 1149.37L4686.07 1148.84L4632.54 1053.17L4687 958.024L4795 958.551L4848.53 1054.22Z" fill="#33373A"/>
<path d="M5359.53 -45.7767L5305.07 49.3691L5197.07 48.8421L5143.54 -46.8307L5198 -141.977L5306 -141.45L5359.53 -45.7767Z" fill="#33373A"/>
<path d="M5696.03 154.223L5641.57 249.369L5533.57 248.842L5480.04 153.169L5534.5 58.0231L5642.5 58.5501L5696.03 154.223Z" fill="#33373A"/>
<path d="M5528.03 254.223L5473.57 349.369L5365.57 348.842L5312.04 253.169L5366.5 158.023L5474.5 158.55L5528.03 254.223Z" fill="#33373A"/>
<path d="M5526.03 654.223L5471.57 749.369L5363.57 748.842L5310.04 653.169L5364.5 558.023L5472.5 558.55L5526.03 654.223Z" fill="#33373A"/>
<path d="M5527.03 854.223L5472.57 949.369L5364.57 948.842L5311.04 853.169L5365.5 758.023L5473.5 758.55L5527.03 854.223Z" fill="#33373A"/>
<path d="M5696.03 754.223L5641.57 849.369L5533.57 848.842L5480.04 753.169L5534.5 658.023L5642.5 658.55L5696.03 754.223Z" fill="#33373A"/>
<path d="M5695.03 954.223L5640.57 1049.37L5532.57 1048.84L5479.04 953.169L5533.5 858.023L5641.5 858.55L5695.03 954.223Z" fill="#33373A"/>
<path d="M5525.53 1054.22L5471.07 1149.37L5363.07 1148.84L5309.54 1053.17L5364 958.023L5472 958.55L5525.53 1054.22Z" fill="#33373A"/>
<path d="M5696.03 154.223L5641.57 249.369L5533.57 248.842L5480.04 153.169L5534.5 58.0231L5642.5 58.5501L5696.03 154.223Z" fill="#33373A"/>
<path d="M5528.03 254.223L5473.57 349.369L5365.57 348.842L5312.04 253.169L5366.5 158.023L5474.5 158.55L5528.03 254.223Z" fill="#33373A"/>
<path d="M5697.03 354.223L5642.57 449.369L5534.57 448.842L5481.04 353.169L5535.5 258.023L5643.5 258.55L5697.03 354.223Z" fill="#33373A"/>
<path d="M5865.03 454.223L5810.57 549.369L5702.57 548.842L5649.04 453.169L5703.5 358.023L5811.5 358.55L5865.03 454.223Z" fill="#33373A"/>
<path d="M5695.53 554.223L5641.07 649.369L5533.07 648.842L5479.54 553.169L5534 458.023L5642 458.55L5695.53 554.223Z" fill="#33373A"/>
<path d="M5528.03 454.223L5473.57 549.369L5365.57 548.842L5312.04 453.169L5366.5 358.023L5474.5 358.55L5528.03 454.223Z" fill="#33373A"/>
<path d="M6033.03 554.223L5978.57 649.369L5870.57 648.842L5817.04 553.169L5871.5 458.023L5979.5 458.55L6033.03 554.223Z" fill="#33373A"/>
<path d="M5865.03 654.223L5810.57 749.369L5702.57 748.842L5649.04 653.169L5703.5 558.023L5811.5 558.55L5865.03 654.223Z" fill="#33373A"/>
<path d="M6034.03 754.223L5979.57 849.369L5871.57 848.842L5818.04 753.169L5872.5 658.023L5980.5 658.55L6034.03 754.223Z" fill="#33373A"/>
<path d="M6203.03 654.223L6148.57 749.369L6040.57 748.842L5987.04 653.169L6041.5 558.023L6149.5 558.55L6203.03 654.223Z" fill="#33373A"/>
<path d="M6202.03 854.223L6147.57 949.369L6039.57 948.842L5986.04 853.169L6040.5 758.023L6148.5 758.55L6202.03 854.223Z" fill="#33373A"/>
<path d="M6032.53 954.223L5978.07 1049.37L5870.07 1048.84L5816.54 953.169L5871 858.023L5979 858.55L6032.53 954.223Z" fill="#33373A"/>
<path d="M5865.03 854.223L5810.57 949.369L5702.57 948.842L5649.04 853.169L5703.5 758.023L5811.5 758.55L5865.03 854.223Z" fill="#33373A"/>
<path d="M5866.03 54.2232L5811.57 149.369L5703.57 148.842L5650.04 53.1692L5704.5 -41.9767L5812.5 -41.4497L5866.03 54.2232Z" fill="#33373A"/>
<path d="M5527.03 55.2234L5472.57 150.369L5364.57 149.842L5311.04 54.1694L5365.5 -40.9764L5473.5 -40.4494L5527.03 55.2234Z" fill="#33373A"/>
<path d="M5864.03 1054.22L5809.57 1149.37L5701.57 1148.84L5648.04 1053.17L5702.5 958.024L5810.5 958.551L5864.03 1054.22Z" fill="#33373A"/>
<path d="M6539.03 454.223L6484.57 549.369L6376.57 548.842L6323.04 453.169L6377.5 358.023L6485.5 358.55L6539.03 454.223Z" fill="#33373A"/>
<path d="M6371.03 554.223L6316.57 649.369L6208.57 648.842L6155.04 553.169L6209.5 458.023L6317.5 458.55L6371.03 554.223Z" fill="#33373A"/>
<path d="M6540.03 654.223L6485.57 749.369L6377.57 748.842L6324.04 653.169L6378.5 558.023L6486.5 558.55L6540.03 654.223Z" fill="#33373A"/>
<path d="M6709.03 554.223L6654.57 649.369L6546.57 648.842L6493.04 553.169L6547.5 458.023L6655.5 458.55L6709.03 554.223Z" fill="#33373A"/>
<path d="M6710.53 954.223L6656.07 1049.37L6548.07 1048.84L6494.54 953.169L6549 858.024L6657 858.551L6710.53 954.223Z" fill="#33373A"/>
<path d="M6370.53 954.223L6316.07 1049.37L6208.07 1048.84L6154.54 953.169L6209 858.024L6317 858.551L6370.53 954.223Z" fill="#33373A"/>
<path d="M6371.03 754.223L6316.57 849.369L6208.57 848.842L6155.04 753.169L6209.5 658.023L6317.5 658.55L6371.03 754.223Z" fill="#33373A"/>
<path d="M6543.53 54.2232L6489.07 149.369L6381.07 148.842L6327.54 53.1692L6382 -41.9767L6490 -41.4497L6543.53 54.2232Z" fill="#33373A"/>
<path d="M6710.53 154.223L6656.07 249.369L6548.07 248.842L6494.54 153.169L6549 58.0236L6657 58.5506L6710.53 154.223Z" fill="#33373A"/>
<path d="M6541.53 254.223L6487.07 349.369L6379.07 348.842L6325.54 253.169L6380 158.024L6488 158.551L6541.53 254.223Z" fill="#33373A"/>
<path d="M6541.53 854.223L6487.07 949.369L6379.07 948.842L6325.54 853.169L6380 758.024L6488 758.551L6541.53 854.223Z" fill="#33373A"/>
<path d="M6374.53 -45.7767L6320.07 49.3691L6212.07 48.8421L6158.54 -46.8307L6213 -141.977L6321 -141.45L6374.53 -45.7767Z" fill="#33373A"/>
<path d="M6202.03 54.2232L6147.57 149.369L6039.57 148.842L5986.04 53.1692L6040.5 -41.9767L6148.5 -41.4497L6202.03 54.2232Z" fill="#33373A"/>
<path d="M6034.03 154.223L5979.57 249.369L5871.57 248.842L5818.04 153.169L5872.5 58.0233L5980.5 58.5503L6034.03 154.223Z" fill="#33373A"/>
<path d="M6203.03 254.223L6148.57 349.369L6040.57 348.842L5987.04 253.169L6041.5 158.023L6149.5 158.55L6203.03 254.223Z" fill="#33373A"/>
<path d="M6372.03 154.223L6317.57 249.369L6209.57 248.842L6156.04 153.169L6210.5 58.0233L6318.5 58.5503L6372.03 154.223Z" fill="#33373A"/>
<path d="M6371.03 354.223L6316.57 449.369L6208.57 448.842L6155.04 353.169L6209.5 258.023L6317.5 258.55L6371.03 354.223Z" fill="#33373A"/>
<path d="M6201.53 454.223L6147.07 549.369L6039.07 548.842L5985.54 453.169L6040 358.023L6148 358.55L6201.53 454.223Z" fill="#33373A"/>
<path d="M6034.03 354.223L5979.57 449.369L5871.57 448.842L5818.04 353.169L5872.5 258.023L5980.5 258.55L6034.03 354.223Z" fill="#33373A"/>
<path d="M6202.03 54.2232L6147.57 149.369L6039.57 148.842L5986.04 53.1692L6040.5 -41.9767L6148.5 -41.4497L6202.03 54.2232Z" fill="#33373A"/>
<path d="M6034.03 154.223L5979.57 249.369L5871.57 248.842L5818.04 153.169L5872.5 58.0233L5980.5 58.5503L6034.03 154.223Z" fill="#33373A"/>
<path d="M6203.03 254.223L6148.57 349.369L6040.57 348.842L5987.04 253.169L6041.5 158.023L6149.5 158.55L6203.03 254.223Z" fill="#33373A"/>
<path d="M6372.03 154.223L6317.57 249.369L6209.57 248.842L6156.04 153.169L6210.5 58.0233L6318.5 58.5503L6372.03 154.223Z" fill="#33373A"/>
<path d="M5694.53 -45.7767L5640.07 49.3691L5532.07 48.8421L5478.54 -46.8307L5533 -141.977L5641 -141.45L5694.53 -45.7767Z" fill="#33373A"/>
<path d="M6032.53 -45.7767L5978.07 49.3691L5870.07 48.8421L5816.54 -46.8307L5871 -141.977L5979 -141.45L6032.53 -45.7767Z" fill="#33373A"/>
<path d="M6711.53 354.223L6657.07 449.369L6549.07 448.842L6495.54 353.169L6550 258.023L6658 258.55L6711.53 354.223Z" fill="#33373A"/>
<path d="M6201.53 454.223L6147.07 549.369L6039.07 548.842L5985.54 453.169L6040 358.023L6148 358.55L6201.53 454.223Z" fill="#33373A"/>
<path d="M6034.03 354.223L5979.57 449.369L5871.57 448.842L5818.04 353.169L5872.5 258.023L5980.5 258.55L6034.03 354.223Z" fill="#33373A"/>
<path d="M6543.53 1054.22L6489.07 1149.37L6381.07 1148.84L6327.54 1053.17L6382 958.024L6490 958.551L6543.53 1054.22Z" fill="#33373A"/>
<path d="M6711.53 -45.7767L6657.07 49.3691L6549.07 48.8421L6495.54 -46.8307L6550 -141.977L6658 -141.45L6711.53 -45.7767Z" fill="#33373A"/>
<path d="M6879.03 654.223L6824.57 749.369L6716.57 748.842L6663.04 653.169L6717.5 558.023L6825.5 558.55L6879.03 654.223Z" fill="#33373A"/>
<path d="M6880.03 854.223L6825.57 949.369L6717.57 948.842L6664.04 853.169L6718.5 758.023L6826.5 758.55L6880.03 854.223Z" fill="#33373A"/>
<path d="M7049.03 754.223L6994.57 849.369L6886.57 848.842L6833.04 753.169L6887.5 658.023L6995.5 658.55L7049.03 754.223Z" fill="#33373A"/>
<path d="M7048.03 954.223L6993.57 1049.37L6885.57 1048.84L6832.04 953.169L6886.5 858.023L6994.5 858.55L7048.03 954.223Z" fill="#33373A"/>
<path d="M6878.53 1054.22L6824.07 1149.37L6716.07 1148.84L6662.54 1053.17L6717 958.023L6825 958.55L6878.53 1054.22Z" fill="#33373A"/>
<path d="M7049.03 154.223L6994.57 249.369L6886.57 248.842L6833.04 153.169L6887.5 58.0231L6995.5 58.5501L7049.03 154.223Z" fill="#33373A"/>
<path d="M6881.03 254.223L6826.57 349.369L6718.57 348.842L6665.04 253.169L6719.5 158.023L6827.5 158.55L6881.03 254.223Z" fill="#33373A"/>
<path d="M7050.03 354.223L6995.57 449.369L6887.57 448.842L6834.04 353.169L6888.5 258.023L6996.5 258.55L7050.03 354.223Z" fill="#33373A"/>
<path d="M7219.03 254.223L7164.57 349.369L7056.57 348.842L7003.04 253.169L7057.5 158.023L7165.5 158.55L7219.03 254.223Z" fill="#33373A"/>
<path d="M7218.03 454.223L7163.57 549.369L7055.57 548.842L7002.04 453.169L7056.5 358.023L7164.5 358.55L7218.03 454.223Z" fill="#33373A"/>
<path d="M7048.53 554.223L6994.07 649.369L6886.07 648.842L6832.54 553.169L6887 458.023L6995 458.55L7048.53 554.223Z" fill="#33373A"/>
<path d="M6881.03 454.223L6826.57 549.369L6718.57 548.842L6665.04 453.169L6719.5 358.023L6827.5 358.55L6881.03 454.223Z" fill="#33373A"/>
<path d="M7386.03 554.223L7331.57 649.369L7223.57 648.842L7170.04 553.169L7224.5 458.023L7332.5 458.55L7386.03 554.223Z" fill="#33373A"/>
<path d="M7218.03 654.223L7163.57 749.369L7055.57 748.842L7002.04 653.169L7056.5 558.023L7164.5 558.55L7218.03 654.223Z" fill="#33373A"/>
<path d="M7387.03 754.223L7332.57 849.369L7224.57 848.842L7171.04 753.169L7225.5 658.023L7333.5 658.55L7387.03 754.223Z" fill="#33373A"/>
<path d="M7556.03 654.223L7501.57 749.369L7393.57 748.842L7340.04 653.169L7394.5 558.023L7502.5 558.55L7556.03 654.223Z" fill="#33373A"/>
<path d="M7555.03 854.223L7500.57 949.369L7392.57 948.842L7339.04 853.169L7393.5 758.023L7501.5 758.55L7555.03 854.223Z" fill="#33373A"/>
<path d="M7385.53 954.223L7331.07 1049.37L7223.07 1048.84L7169.54 953.169L7224 858.023L7332 858.55L7385.53 954.223Z" fill="#33373A"/>
<path d="M7218.03 854.223L7163.57 949.369L7055.57 948.842L7002.04 853.169L7056.5 758.023L7164.5 758.55L7218.03 854.223Z" fill="#33373A"/>
<path d="M7219.03 54.2232L7164.57 149.369L7056.57 148.842L7003.04 53.1692L7057.5 -41.9767L7165.5 -41.4497L7219.03 54.2232Z" fill="#33373A"/>
<path d="M6880.03 55.2234L6825.57 150.369L6717.57 149.842L6664.04 54.1694L6718.5 -40.9764L6826.5 -40.4494L6880.03 55.2234Z" fill="#33373A"/>
<path d="M7217.03 1054.22L7162.57 1149.37L7054.57 1148.84L7001.04 1053.17L7055.5 958.024L7163.5 958.551L7217.03 1054.22Z" fill="#33373A"/>
<path d="M7892.03 454.223L7837.57 549.369L7729.57 548.842L7676.04 453.169L7730.5 358.023L7838.5 358.55L7892.03 454.223Z" fill="#33373A"/>
<path d="M7724.03 554.223L7669.57 649.369L7561.57 648.842L7508.04 553.169L7562.5 458.023L7670.5 458.55L7724.03 554.223Z" fill="#33373A"/>
<path d="M7893.03 654.223L7838.57 749.369L7730.57 748.842L7677.04 653.169L7731.5 558.023L7839.5 558.55L7893.03 654.223Z" fill="#33373A"/>
<path d="M8062.03 554.223L8007.57 649.369L7899.57 648.842L7846.04 553.169L7900.5 458.023L8008.5 458.55L8062.03 554.223Z" fill="#33373A"/>
<path d="M8061.03 754.223L8006.57 849.369L7898.57 848.842L7845.04 753.169L7899.5 658.023L8007.5 658.55L8061.03 754.223Z" fill="#33373A"/>
<path d="M8063.53 954.223L8009.07 1049.37L7901.07 1048.84L7847.54 953.169L7902 858.024L8010 858.551L8063.53 954.223Z" fill="#33373A"/>
<path d="M7723.53 954.223L7669.07 1049.37L7561.07 1048.84L7507.54 953.169L7562 858.024L7670 858.551L7723.53 954.223Z" fill="#33373A"/>
<path d="M7724.03 754.223L7669.57 849.369L7561.57 848.842L7508.04 753.169L7562.5 658.023L7670.5 658.55L7724.03 754.223Z" fill="#33373A"/>
<path d="M8063.53 154.223L8009.07 249.369L7901.07 248.842L7847.54 153.169L7902 58.0236L8010 58.5506L8063.53 154.223Z" fill="#33373A"/>
<path d="M7894.53 254.223L7840.07 349.369L7732.07 348.842L7678.54 253.169L7733 158.024L7841 158.551L7894.53 254.223Z" fill="#33373A"/>
<path d="M7894.53 854.223L7840.07 949.369L7732.07 948.842L7678.54 853.169L7733 758.024L7841 758.551L7894.53 854.223Z" fill="#33373A"/>
<path d="M7727.53 -45.7767L7673.07 49.3691L7565.07 48.8421L7511.54 -46.8307L7566 -141.977L7674 -141.45L7727.53 -45.7767Z" fill="#33373A"/>
<path d="M7555.03 54.2232L7500.57 149.369L7392.57 148.842L7339.04 53.1692L7393.5 -41.9767L7501.5 -41.4497L7555.03 54.2232Z" fill="#33373A"/>
<path d="M7387.03 154.223L7332.57 249.369L7224.57 248.842L7171.04 153.169L7225.5 58.0233L7333.5 58.5503L7387.03 154.223Z" fill="#33373A"/>
<path d="M7556.03 254.223L7501.57 349.369L7393.57 348.842L7340.04 253.169L7394.5 158.023L7502.5 158.55L7556.03 254.223Z" fill="#33373A"/>
<path d="M7725.03 154.223L7670.57 249.369L7562.57 248.842L7509.04 153.169L7563.5 58.0233L7671.5 58.5503L7725.03 154.223Z" fill="#33373A"/>
<path d="M7724.03 354.223L7669.57 449.369L7561.57 448.842L7508.04 353.169L7562.5 258.023L7670.5 258.55L7724.03 354.223Z" fill="#33373A"/>
<path d="M7554.53 454.223L7500.07 549.369L7392.07 548.842L7338.54 453.169L7393 358.023L7501 358.55L7554.53 454.223Z" fill="#33373A"/>
<path d="M7387.03 354.223L7332.57 449.369L7224.57 448.842L7171.04 353.169L7225.5 258.023L7333.5 258.55L7387.03 354.223Z" fill="#33373A"/>
<path d="M7555.03 54.2232L7500.57 149.369L7392.57 148.842L7339.04 53.1692L7393.5 -41.9767L7501.5 -41.4497L7555.03 54.2232Z" fill="#33373A"/>
<path d="M7387.03 154.223L7332.57 249.369L7224.57 248.842L7171.04 153.169L7225.5 58.0233L7333.5 58.5503L7387.03 154.223Z" fill="#33373A"/>
<path d="M7556.03 254.223L7501.57 349.369L7393.57 348.842L7340.04 253.169L7394.5 158.023L7502.5 158.55L7556.03 254.223Z" fill="#33373A"/>
<path d="M7725.03 154.223L7670.57 249.369L7562.57 248.842L7509.04 153.169L7563.5 58.0233L7671.5 58.5503L7725.03 154.223Z" fill="#33373A"/>
<path d="M7047.53 -45.7767L6993.07 49.3691L6885.07 48.8421L6831.54 -46.8307L6886 -141.977L6994 -141.45L7047.53 -45.7767Z" fill="#33373A"/>
<path d="M7385.53 -45.7767L7331.07 49.3691L7223.07 48.8421L7169.54 -46.8307L7224 -141.977L7332 -141.45L7385.53 -45.7767Z" fill="#33373A"/>
<path d="M8064.53 354.223L8010.07 449.369L7902.07 448.842L7848.54 353.169L7903 258.023L8011 258.55L8064.53 354.223Z" fill="#33373A"/>
<path d="M7554.53 454.223L7500.07 549.369L7392.07 548.842L7338.54 453.169L7393 358.023L7501 358.55L7554.53 454.223Z" fill="#33373A"/>
<path d="M7387.03 354.223L7332.57 449.369L7224.57 448.842L7171.04 353.169L7225.5 258.023L7333.5 258.55L7387.03 354.223Z" fill="#33373A"/>
<path d="M7895.53 1054.22L7841.07 1149.37L7733.07 1148.84L7679.54 1053.17L7734 958.024L7842 958.551L7895.53 1054.22Z" fill="#33373A"/>
<path d="M8064.53 -45.7767L8010.07 49.3691L7902.07 48.8421L7848.54 -46.8307L7903 -141.977L8011 -141.45L8064.53 -45.7767Z" fill="#33373A"/>
<path d="M8401.03 154.223L8346.57 249.369L8238.57 248.842L8185.04 153.169L8239.5 58.0231L8347.5 58.5501L8401.03 154.223Z" fill="#33373A"/>
<path d="M8233.03 254.223L8178.57 349.369L8070.57 348.842L8017.04 253.169L8071.5 158.023L8179.5 158.55L8233.03 254.223Z" fill="#33373A"/>
<path d="M8402.03 354.223L8347.57 449.369L8239.57 448.842L8186.04 353.169L8240.5 258.023L8348.5 258.55L8402.03 354.223Z" fill="#33373A"/>
<path d="M8571.03 254.223L8516.57 349.369L8408.57 348.842L8355.04 253.169L8409.5 158.023L8517.5 158.55L8571.03 254.223Z" fill="#33373A"/>
<path d="M8570.03 454.223L8515.57 549.369L8407.57 548.842L8354.04 453.169L8408.5 358.023L8516.5 358.55L8570.03 454.223Z" fill="#33373A"/>
<path d="M8233.03 454.223L8178.57 549.369L8070.57 548.842L8017.04 453.169L8071.5 358.023L8179.5 358.55L8233.03 454.223Z" fill="#33373A"/>
<path d="M8738.03 554.223L8683.57 649.369L8575.57 648.842L8522.04 553.169L8576.5 458.023L8684.5 458.55L8738.03 554.223Z" fill="#33373A"/>
<path d="M8570.03 654.223L8515.57 749.369L8407.57 748.842L8354.04 653.169L8408.5 558.023L8516.5 558.55L8570.03 654.223Z" fill="#33373A"/>
<path d="M8739.03 754.223L8684.57 849.369L8576.57 848.842L8523.04 753.169L8577.5 658.023L8685.5 658.55L8739.03 754.223Z" fill="#33373A"/>
<path d="M8908.03 654.223L8853.57 749.369L8745.57 748.842L8692.04 653.169L8746.5 558.023L8854.5 558.55L8908.03 654.223Z" fill="#33373A"/>
<path d="M8907.03 854.223L8852.57 949.369L8744.57 948.842L8691.04 853.169L8745.5 758.023L8853.5 758.55L8907.03 854.223Z" fill="#33373A"/>
<path d="M8737.53 954.223L8683.07 1049.37L8575.07 1048.84L8521.54 953.169L8576 858.023L8684 858.55L8737.53 954.223Z" fill="#33373A"/>
<path d="M8570.03 854.223L8515.57 949.369L8407.57 948.842L8354.04 853.169L8408.5 758.023L8516.5 758.55L8570.03 854.223Z" fill="#33373A"/>
<path d="M8231.03 654.223L8176.57 749.369L8068.57 748.842L8015.04 653.169L8069.5 558.023L8177.5 558.55L8231.03 654.223Z" fill="#33373A"/>
<path d="M8232.03 854.223L8177.57 949.369L8069.57 948.842L8016.04 853.169L8070.5 758.023L8178.5 758.55L8232.03 854.223Z" fill="#33373A"/>
<path d="M8401.03 754.223L8346.57 849.369L8238.57 848.842L8185.04 753.169L8239.5 658.023L8347.5 658.55L8401.03 754.223Z" fill="#33373A"/>
<path d="M8400.03 954.223L8345.57 1049.37L8237.57 1048.84L8184.04 953.169L8238.5 858.023L8346.5 858.55L8400.03 954.223Z" fill="#33373A"/>
<path d="M8230.53 1054.22L8176.07 1149.37L8068.07 1148.84L8014.54 1053.17L8069 958.023L8177 958.55L8230.53 1054.22Z" fill="#33373A"/>
<path d="M8571.03 54.2232L8516.57 149.369L8408.57 148.842L8355.04 53.1692L8409.5 -41.9767L8517.5 -41.4497L8571.03 54.2232Z" fill="#33373A"/>
<path d="M8232.03 55.2234L8177.57 150.369L8069.57 149.842L8016.04 54.1694L8070.5 -40.9764L8178.5 -40.4494L8232.03 55.2234Z" fill="#33373A"/>
<path d="M9244.03 454.223L9189.57 549.369L9081.57 548.842L9028.04 453.169L9082.5 358.023L9190.5 358.55L9244.03 454.223Z" fill="#33373A"/>
<path d="M9076.03 554.223L9021.57 649.369L8913.57 648.842L8860.04 553.169L8914.5 458.023L9022.5 458.55L9076.03 554.223Z" fill="#33373A"/>
<path d="M9245.03 654.223L9190.57 749.369L9082.57 748.842L9029.04 653.169L9083.5 558.023L9191.5 558.55L9245.03 654.223Z" fill="#33373A"/>
<path d="M9414.03 554.223L9359.57 649.369L9251.57 648.842L9198.04 553.169L9252.5 458.023L9360.5 458.55L9414.03 554.223Z" fill="#33373A"/>
<path d="M9415.53 954.223L9361.07 1049.37L9253.07 1048.84L9199.54 953.169L9254 858.024L9362 858.551L9415.53 954.223Z" fill="#33373A"/>
<path d="M9075.53 954.223L9021.07 1049.37L8913.07 1048.84L8859.54 953.169L8914 858.024L9022 858.551L9075.53 954.223Z" fill="#33373A"/>
<path d="M9076.03 754.223L9021.57 849.369L8913.57 848.842L8860.04 753.169L8914.5 658.023L9022.5 658.55L9076.03 754.223Z" fill="#33373A"/>
<path d="M9248.53 54.2232L9194.07 149.369L9086.07 148.842L9032.54 53.1692L9087 -41.9767L9195 -41.4497L9248.53 54.2232Z" fill="#33373A"/>
<path d="M9415.53 154.223L9361.07 249.369L9253.07 248.842L9199.54 153.169L9254 58.0236L9362 58.5506L9415.53 154.223Z" fill="#33373A"/>
<path d="M9246.53 854.223L9192.07 949.369L9084.07 948.842L9030.54 853.169L9085 758.024L9193 758.551L9246.53 854.223Z" fill="#33373A"/>
<path d="M9079.53 -45.7767L9025.07 49.3691L8917.07 48.8421L8863.54 -46.8307L8918 -141.977L9026 -141.45L9079.53 -45.7767Z" fill="#33373A"/>
<path d="M8907.03 54.2232L8852.57 149.369L8744.57 148.842L8691.04 53.1692L8745.5 -41.9767L8853.5 -41.4497L8907.03 54.2232Z" fill="#33373A"/>
<path d="M8739.03 154.223L8684.57 249.369L8576.57 248.842L8523.04 153.169L8577.5 58.0233L8685.5 58.5503L8739.03 154.223Z" fill="#33373A"/>
<path d="M8908.03 254.223L8853.57 349.369L8745.57 348.842L8692.04 253.169L8746.5 158.023L8854.5 158.55L8908.03 254.223Z" fill="#33373A"/>
<path d="M9077.03 154.223L9022.57 249.369L8914.57 248.842L8861.04 153.169L8915.5 58.0233L9023.5 58.5503L9077.03 154.223Z" fill="#33373A"/>
<path d="M9076.03 354.223L9021.57 449.369L8913.57 448.842L8860.04 353.169L8914.5 258.023L9022.5 258.55L9076.03 354.223Z" fill="#33373A"/>
<path d="M8906.53 454.223L8852.07 549.369L8744.07 548.842L8690.54 453.169L8745 358.023L8853 358.55L8906.53 454.223Z" fill="#33373A"/>
<path d="M8739.03 354.223L8684.57 449.369L8576.57 448.842L8523.04 353.169L8577.5 258.023L8685.5 258.55L8739.03 354.223Z" fill="#33373A"/>
<path d="M8399.53 -45.7767L8345.07 49.3691L8237.07 48.8421L8183.54 -46.8307L8238 -141.977L8346 -141.45L8399.53 -45.7767Z" fill="#33373A"/>
<path d="M8737.53 -45.7767L8683.07 49.3691L8575.07 48.8421L8521.54 -46.8307L8576 -141.977L8684 -141.45L8737.53 -45.7767Z" fill="#33373A"/>
<path d="M9416.53 354.223L9362.07 449.369L9254.07 448.842L9200.54 353.169L9255 258.023L9363 258.55L9416.53 354.223Z" fill="#33373A"/>
<path d="M9248.53 1054.22L9194.07 1149.37L9086.07 1148.84L9032.54 1053.17L9087 958.024L9195 958.551L9248.53 1054.22Z" fill="#33373A"/>
<path d="M8905.53 1054.22L8851.07 1149.37L8743.07 1148.84L8689.54 1053.17L8744 958.024L8852 958.551L8905.53 1054.22Z" fill="#33373A"/>
<path d="M9416.53 -45.7767L9362.07 49.3691L9254.07 48.8421L9200.54 -46.8307L9255 -141.977L9363 -141.45L9416.53 -45.7767Z" fill="#33373A"/>
<path d="M9754.03 154.223L9699.57 249.369L9591.57 248.842L9538.04 153.169L9592.5 58.0231L9700.5 58.5501L9754.03 154.223Z" fill="#33373A"/>
<path d="M9586.03 254.223L9531.57 349.369L9423.57 348.842L9370.04 253.169L9424.5 158.023L9532.5 158.55L9586.03 254.223Z" fill="#33373A"/>
<path d="M9755.03 354.223L9700.57 449.369L9592.57 448.842L9539.04 353.169L9593.5 258.023L9701.5 258.55L9755.03 354.223Z" fill="#33373A"/>
<path d="M9753.53 554.223L9699.07 649.369L9591.07 648.842L9537.54 553.169L9592 458.023L9700 458.55L9753.53 554.223Z" fill="#33373A"/>
<path d="M9586.03 454.223L9531.57 549.369L9423.57 548.842L9370.04 453.169L9424.5 358.023L9532.5 358.55L9586.03 454.223Z" fill="#33373A"/>
<path d="M9584.03 654.223L9529.57 749.369L9421.57 748.842L9368.04 653.169L9422.5 558.023L9530.5 558.55L9584.03 654.223Z" fill="#33373A"/>
<path d="M9585.03 854.223L9530.57 949.369L9422.57 948.842L9369.04 853.169L9423.5 758.023L9531.5 758.55L9585.03 854.223Z" fill="#33373A"/>
<path d="M9754.03 754.223L9699.57 849.369L9591.57 848.842L9538.04 753.169L9592.5 658.023L9700.5 658.55L9754.03 754.223Z" fill="#33373A"/>
<path d="M9753.03 954.223L9698.57 1049.37L9590.57 1048.84L9537.04 953.169L9591.5 858.023L9699.5 858.55L9753.03 954.223Z" fill="#33373A"/>
<path d="M9583.53 1054.22L9529.07 1149.37L9421.07 1148.84L9367.54 1053.17L9422 958.023L9530 958.55L9583.53 1054.22Z" fill="#33373A"/>
<path d="M9585.03 55.2234L9530.57 150.369L9422.57 149.842L9369.04 54.1694L9423.5 -40.9764L9531.5 -40.4494L9585.03 55.2234Z" fill="#33373A"/>
</g>
<defs>
<linearGradient id="paint0_linear" x1="286.035" y1="154.223" x2="70.0388" y2="153.169" gradientUnits="userSpaceOnUse">
<stop stop-color="#262A2D"/>
<stop offset="1" stop-color="#202421"/>
</linearGradient>
<linearGradient id="paint1_linear" x1="116.035" y1="654.223" x2="-99.9612" y2="653.169" gradientUnits="userSpaceOnUse">
<stop stop-color="#505559"/>
<stop offset="1" stop-color="#2D3A44"/>
</linearGradient>
<linearGradient id="paint2_linear" x1="286.035" y1="754.223" x2="70.0388" y2="753.169" gradientUnits="userSpaceOnUse">
<stop stop-color="#262A2D"/>
<stop offset="1" stop-color="#202421"/>
</linearGradient>
<linearGradient id="paint3_linear" x1="455.035" y1="454.223" x2="239.039" y2="453.169" gradientUnits="userSpaceOnUse">
<stop stop-color="#262A2D"/>
<stop offset="1" stop-color="#202421"/>
</linearGradient>
<linearGradient id="paint4_linear" x1="285.534" y1="554.223" x2="69.5378" y2="553.169" gradientUnits="userSpaceOnUse">
<stop stop-color="#505559"/>
<stop offset="1" stop-color="#2D3A44"/>
</linearGradient>
<linearGradient id="paint5_linear" x1="623.035" y1="554.223" x2="407.039" y2="553.169" gradientUnits="userSpaceOnUse">
<stop stop-color="#505559"/>
<stop offset="1" stop-color="#2D3A44"/>
</linearGradient>
<linearGradient id="paint6_linear" x1="792.035" y1="854.223" x2="576.039" y2="853.169" gradientUnits="userSpaceOnUse">
<stop stop-color="#505559"/>
<stop offset="1" stop-color="#2D3A44"/>
</linearGradient>
<linearGradient id="paint7_linear" x1="622.534" y1="954.223" x2="406.538" y2="953.169" gradientUnits="userSpaceOnUse">
<stop stop-color="#262A2D"/>
<stop offset="1" stop-color="#202421"/>
</linearGradient>
<linearGradient id="paint8_linear" x1="117.035" y1="55.2234" x2="-98.9612" y2="54.1694" gradientUnits="userSpaceOnUse">
<stop stop-color="#505559"/>
<stop offset="1" stop-color="#2D3A44"/>
</linearGradient>
<linearGradient id="paint9_linear" x1="1129.03" y1="454.223" x2="913.039" y2="453.169" gradientUnits="userSpaceOnUse">
<stop stop-color="#262A2D"/>
<stop offset="1" stop-color="#202421"/>
</linearGradient>
<linearGradient id="paint10_linear" x1="961.035" y1="554.223" x2="745.039" y2="553.169" gradientUnits="userSpaceOnUse">
<stop stop-color="#505559"/>
<stop offset="1" stop-color="#2D3A44"/>
</linearGradient>
<linearGradient id="paint11_linear" x1="961.035" y1="754.223" x2="745.039" y2="753.169" gradientUnits="userSpaceOnUse">
<stop stop-color="#262A2D"/>
<stop offset="1" stop-color="#202421"/>
</linearGradient>
<linearGradient id="paint12_linear" x1="1300.53" y1="154.223" x2="1084.54" y2="153.169" gradientUnits="userSpaceOnUse">
<stop stop-color="#505559"/>
<stop offset="1" stop-color="#2D3A44"/>
</linearGradient>
<linearGradient id="paint13_linear" x1="793.035" y1="254.223" x2="577.039" y2="253.169" gradientUnits="userSpaceOnUse">
<stop stop-color="#262A2D"/>
<stop offset="1" stop-color="#202421"/>
</linearGradient>
<linearGradient id="paint14_linear" x1="962.035" y1="154.223" x2="746.039" y2="153.169" gradientUnits="userSpaceOnUse">
<stop stop-color="#505559"/>
<stop offset="1" stop-color="#2D3A44"/>
</linearGradient>
<linearGradient id="paint15_linear" x1="622.534" y1="-45.7767" x2="406.538" y2="-46.8307" gradientUnits="userSpaceOnUse">
<stop stop-color="#505559"/>
<stop offset="1" stop-color="#2D3A44"/>
</linearGradient>
<linearGradient id="paint16_linear" x1="1133.53" y1="1054.22" x2="917.538" y2="1053.17" gradientUnits="userSpaceOnUse">
<stop stop-color="#262A2D"/>
<stop offset="1" stop-color="#202421"/>
</linearGradient>
<linearGradient id="paint17_linear" x1="1469.03" y1="654.223" x2="1253.04" y2="653.169" gradientUnits="userSpaceOnUse">
<stop stop-color="#505559"/>
<stop offset="1" stop-color="#2D3A44"/>
</linearGradient>
<linearGradient id="paint18_linear" x1="1639.03" y1="754.223" x2="1423.04" y2="753.169" gradientUnits="userSpaceOnUse">
<stop stop-color="#262A2D"/>
<stop offset="1" stop-color="#202421"/>
</linearGradient>
<linearGradient id="paint19_linear" x1="1638.03" y1="954.223" x2="1422.04" y2="953.169" gradientUnits="userSpaceOnUse">
<stop stop-color="#505559"/>
<stop offset="1" stop-color="#2D3A44"/>
</linearGradient>
<linearGradient id="paint20_linear" x1="1640.03" y1="354.223" x2="1424.04" y2="353.169" gradientUnits="userSpaceOnUse">
<stop stop-color="#505559"/>
<stop offset="1" stop-color="#2D3A44"/>
</linearGradient>
<linearGradient id="paint21_linear" x1="1809.03" y1="254.223" x2="1593.04" y2="253.169" gradientUnits="userSpaceOnUse">
<stop stop-color="#262A2D"/>
<stop offset="1" stop-color="#202421"/>
</linearGradient>
<linearGradient id="paint22_linear" x1="2146.03" y1="654.223" x2="1930.04" y2="653.169" gradientUnits="userSpaceOnUse">
<stop stop-color="#262A2D"/>
<stop offset="1" stop-color="#202421"/>
</linearGradient>
<linearGradient id="paint23_linear" x1="1809.03" y1="54.2232" x2="1593.04" y2="53.1692" gradientUnits="userSpaceOnUse">
<stop stop-color="#505559"/>
<stop offset="1" stop-color="#2D3A44"/>
</linearGradient>
<linearGradient id="paint24_linear" x1="2482.03" y1="454.223" x2="2266.04" y2="453.169" gradientUnits="userSpaceOnUse">
<stop stop-color="#505559"/>
<stop offset="1" stop-color="#2D3A44"/>
</linearGradient>
<linearGradient id="paint25_linear" x1="2314.03" y1="554.223" x2="2098.04" y2="553.169" gradientUnits="userSpaceOnUse">
<stop stop-color="#505559"/>
<stop offset="1" stop-color="#2D3A44"/>
</linearGradient>
<linearGradient id="paint26_linear" x1="2483.03" y1="654.223" x2="2267.04" y2="653.169" gradientUnits="userSpaceOnUse">
<stop stop-color="#262A2D"/>
<stop offset="1" stop-color="#202421"/>
</linearGradient>
<linearGradient id="paint27_linear" x1="2653.53" y1="954.223" x2="2437.54" y2="953.169" gradientUnits="userSpaceOnUse">
<stop stop-color="#505559"/>
<stop offset="1" stop-color="#2D3A44"/>
</linearGradient>
<linearGradient id="paint28_linear" x1="2313.53" y1="954.223" x2="2097.54" y2="953.169" gradientUnits="userSpaceOnUse">
<stop stop-color="#505559"/>
<stop offset="1" stop-color="#2D3A44"/>
</linearGradient>
<linearGradient id="paint29_linear" x1="2146.03" y1="254.223" x2="1930.04" y2="253.169" gradientUnits="userSpaceOnUse">
<stop stop-color="#262A2D"/>
<stop offset="1" stop-color="#202421"/>
</linearGradient>
<linearGradient id="paint30_linear" x1="2315.03" y1="154.223" x2="2099.04" y2="153.169" gradientUnits="userSpaceOnUse">
<stop stop-color="#505559"/>
<stop offset="1" stop-color="#2D3A44"/>
</linearGradient>
<linearGradient id="paint31_linear" x1="1975.53" y1="-45.7767" x2="1759.54" y2="-46.8307" gradientUnits="userSpaceOnUse">
<stop stop-color="#262A2D"/>
<stop offset="1" stop-color="#202421"/>
</linearGradient>
<linearGradient id="paint32_linear" x1="1977.03" y1="354.223" x2="1761.04" y2="353.169" gradientUnits="userSpaceOnUse">
<stop stop-color="#505559"/>
<stop offset="1" stop-color="#2D3A44"/>
</linearGradient>
<linearGradient id="paint33_linear" x1="2991.03" y1="754.223" x2="2775.04" y2="753.169" gradientUnits="userSpaceOnUse">
<stop stop-color="#505559"/>
<stop offset="1" stop-color="#2D3A44"/>
</linearGradient>
<linearGradient id="paint34_linear" x1="2820.53" y1="1054.22" x2="2604.54" y2="1053.17" gradientUnits="userSpaceOnUse">
<stop stop-color="#262A2D"/>
<stop offset="1" stop-color="#202421"/>
</linearGradient>
<linearGradient id="paint35_linear" x1="2823.03" y1="254.223" x2="2607.04" y2="253.169" gradientUnits="userSpaceOnUse">
<stop stop-color="#505559"/>
<stop offset="1" stop-color="#2D3A44"/>
</linearGradient>
<linearGradient id="paint36_linear" x1="2990.53" y1="554.223" x2="2774.54" y2="553.169" gradientUnits="userSpaceOnUse">
<stop stop-color="#262A2D"/>
<stop offset="1" stop-color="#202421"/>
</linearGradient>
<linearGradient id="paint37_linear" x1="3328.03" y1="554.223" x2="3112.04" y2="553.169" gradientUnits="userSpaceOnUse">
<stop stop-color="#505559"/>
<stop offset="1" stop-color="#2D3A44"/>
</linearGradient>
<linearGradient id="paint38_linear" x1="3329.03" y1="754.223" x2="3113.04" y2="753.169" gradientUnits="userSpaceOnUse">
<stop stop-color="#262A2D"/>
<stop offset="1" stop-color="#202421"/>
</linearGradient>
<linearGradient id="paint39_linear" x1="3497.03" y1="854.223" x2="3281.04" y2="853.169" gradientUnits="userSpaceOnUse">
<stop stop-color="#505559"/>
<stop offset="1" stop-color="#2D3A44"/>
</linearGradient>
<linearGradient id="paint40_linear" x1="3161.03" y1="54.2232" x2="2945.04" y2="53.1692" gradientUnits="userSpaceOnUse">
<stop stop-color="#505559"/>
<stop offset="1" stop-color="#2D3A44"/>
</linearGradient>
<linearGradient id="paint41_linear" x1="3835.03" y1="654.223" x2="3619.04" y2="653.169" gradientUnits="userSpaceOnUse">
<stop stop-color="#505559"/>
<stop offset="1" stop-color="#2D3A44"/>
</linearGradient>
<linearGradient id="paint42_linear" x1="3665.53" y1="954.223" x2="3449.54" y2="953.169" gradientUnits="userSpaceOnUse">
<stop stop-color="#262A2D"/>
<stop offset="1" stop-color="#202421"/>
</linearGradient>
<linearGradient id="paint43_linear" x1="3836.53" y1="254.223" x2="3620.54" y2="253.169" gradientUnits="userSpaceOnUse">
<stop stop-color="#262A2D"/>
<stop offset="1" stop-color="#202421"/>
</linearGradient>
<linearGradient id="paint44_linear" x1="3836.53" y1="854.223" x2="3620.54" y2="853.169" gradientUnits="userSpaceOnUse">
<stop stop-color="#505559"/>
<stop offset="1" stop-color="#2D3A44"/>
</linearGradient>
<linearGradient id="paint45_linear" x1="3669.53" y1="-45.7767" x2="3453.54" y2="-46.8307" gradientUnits="userSpaceOnUse">
<stop stop-color="#262A2D"/>
<stop offset="1" stop-color="#202421"/>
</linearGradient>
<linearGradient id="paint46_linear" x1="3498.03" y1="254.223" x2="3282.04" y2="253.169" gradientUnits="userSpaceOnUse">
<stop stop-color="#505559"/>
<stop offset="1" stop-color="#2D3A44"/>
</linearGradient>
<linearGradient id="paint47_linear" x1="3495.53" y1="1054.22" x2="3279.54" y2="1053.17" gradientUnits="userSpaceOnUse">
<stop stop-color="#505559"/>
<stop offset="1" stop-color="#2D3A44"/>
</linearGradient>
</defs>
</svg>
